<svg id="moon" viewBox="0 0 31 31" fill="none" xmlns="http://www.w3.org/2000/svg">
  <path fill-rule="evenodd" clip-rule="evenodd" d="M24.8949 17.0059C24.0631 22.1956 19.1866 25.7236 13.9968 24.8916C8.81351 24.0589 5.28003 19.1787 6.11293 13.9921C6.94442 8.80618 11.8284 5.27559 17.0114 6.1082C17.5371 6.19298 18.052 6.32191 18.5403 6.49149C19.3495 6.77245 19.1721 7.96478 18.3162 7.99802C15.8132 8.09524 13.6907 9.95737 13.29 12.4631C12.8248 15.3584 14.7995 18.0891 17.6928 18.553C20.1992 18.955 22.6214 17.5306 23.5085 15.1818C23.8104 14.3823 24.9944 14.5885 25.0084 15.443C25.0169 15.9637 24.9791 16.4852 24.8949 17.0059ZM17.4473 20.0835C13.7085 19.4839 11.1586 15.9578 11.7595 12.2178C12.0734 10.2552 13.2038 8.59877 14.7665 7.57033C11.2353 7.89693 8.23075 10.5739 7.64334 14.2378C6.94618 18.5788 9.90414 22.6642 14.2424 23.3611C17.9098 23.9491 21.3896 21.9366 22.8041 18.6811C21.3383 19.8443 19.413 20.3987 17.4473 20.0835Z" fill="#0F0F12"/>
  <path fill-rule="evenodd" clip-rule="evenodd" d="M24.8949 17.0059C24.0631 22.1956 19.1866 25.7236 13.9968 24.8916C8.81351 24.0589 5.28003 19.1787 6.11293 13.9921C6.94442 8.80618 11.8284 5.27559 17.0114 6.1082C17.5371 6.19298 18.052 6.32191 18.5403 6.49149C19.3495 6.77245 19.1721 7.96478 18.3162 7.99802C15.8132 8.09524 13.6907 9.95737 13.29 12.4631C12.8248 15.3584 14.7995 18.0891 17.6928 18.553C20.1992 18.955 22.6214 17.5306 23.5085 15.1818C23.8104 14.3823 24.9944 14.5885 25.0084 15.443C25.0169 15.9637 24.9791 16.4852 24.8949 17.0059ZM17.4473 20.0835C13.7085 19.4839 11.1586 15.9578 11.7595 12.2178C12.0734 10.2552 13.2038 8.59877 14.7665 7.57033C11.2353 7.89693 8.23075 10.5739 7.64334 14.2378C6.94618 18.5788 9.90414 22.6642 14.2424 23.3611C17.9098 23.9491 21.3896 21.9366 22.8041 18.6811C21.3383 19.8443 19.413 20.3987 17.4473 20.0835Z" fill="white"/>
</svg>
