<svg id="sun" viewBox="0 0 31 31" fill="none" xmlns="http://www.w3.org/2000/svg">
  <path fill-rule="evenodd" clip-rule="evenodd" d="M14.725 3.35205V7.6378H16.275V3.35205H14.725ZM15.4998 9.16517C18.9994 9.16517 21.8347 12.0009 21.8347 15.5C21.8347 18.9991 18.9994 21.8349 15.4998 21.8349C12.0013 21.8349 9.16498 18.9986 9.16498 15.5C9.16498 12.0014 12.0013 9.16517 15.4998 9.16517ZM15.4998 20.2849C18.1433 20.2849 20.2847 18.1431 20.2847 15.5C20.2847 12.8569 18.1433 10.7152 15.4998 10.7152C12.8573 10.7152 10.715 12.8575 10.715 15.5C10.715 18.1426 12.8573 20.2849 15.4998 20.2849ZM14.725 23.3621V27.6494H16.275V23.3621H14.725ZM23.3614 14.725H27.6487V16.275H23.3614V14.725ZM7.63791 14.725H3.35062V16.275H7.63791V14.725ZM20.5118 9.39215L23.5421 6.3619L24.6381 7.45792L21.6078 10.4882L20.5118 9.39215ZM9.39228 20.5117L6.36203 23.5419L7.45805 24.638L10.4883 21.6077L9.39228 20.5117ZM24.6381 23.5421L21.6078 20.5119L20.5118 21.6079L23.5421 24.6381L24.6381 23.5421ZM7.45805 6.36208L10.4883 9.39233L9.39228 10.4883L6.36203 7.4581L7.45805 6.36208Z" fill="#0F0F12"/>
  <path fill-rule="evenodd" clip-rule="evenodd" d="M14.725 3.35205V7.6378H16.275V3.35205H14.725ZM15.4998 9.16517C18.9994 9.16517 21.8347 12.0009 21.8347 15.5C21.8347 18.9991 18.9994 21.8349 15.4998 21.8349C12.0013 21.8349 9.16498 18.9986 9.16498 15.5C9.16498 12.0014 12.0013 9.16517 15.4998 9.16517ZM15.4998 20.2849C18.1433 20.2849 20.2847 18.1431 20.2847 15.5C20.2847 12.8569 18.1433 10.7152 15.4998 10.7152C12.8573 10.7152 10.715 12.8575 10.715 15.5C10.715 18.1426 12.8573 20.2849 15.4998 20.2849ZM14.725 23.3621V27.6494H16.275V23.3621H14.725ZM23.3614 14.725H27.6487V16.275H23.3614V14.725ZM7.63791 14.725H3.35062V16.275H7.63791V14.725ZM20.5118 9.39215L23.5421 6.3619L24.6381 7.45792L21.6078 10.4882L20.5118 9.39215ZM9.39228 20.5117L6.36203 23.5419L7.45805 24.638L10.4883 21.6077L9.39228 20.5117ZM24.6381 23.5421L21.6078 20.5119L20.5118 21.6079L23.5421 24.6381L24.6381 23.5421ZM7.45805 6.36208L10.4883 9.39233L9.39228 10.4883L6.36203 7.4581L7.45805 6.36208Z" fill="white"/>
=</svg>
